:SAMPLES-PER-SECOND 30
:FULLY-SPECIFIED
:DEGREES
98
root  -37.9902 38.2451 -5.81672 -25.2982 -84.8933 18.3125
RightUpLeg  -31.1058 -8.4995 -5.82574
RightLeg  26.7538 -6.95107 -4.03479
RightFoot  0.0799094 -0.640765 6.37569
RightToes  0.00048216 0.542163 -0.142577
Spine  25.0203 -3.00015 0.579377
Spine1  2.32868 -2.52533 -2.26673
HEad  5.61966 3.26511 -3.93391
LeftShoulder1  6.13239 -9.14003 -42.0929
LeftArm  -11.447 1.57954 -34.5489
LeftForeArm  53.7466 -69.0465 -23.5415
LeftHand  -0.25398 0.0180481 5.50724
RightShoulder  5.28624 8.96932 36.3864
RightArm  -2.63391 -23.4736 30.8148
RightForeArm  14.943 67.0491 26.5258
RightHand  -2.82596 6.40931 -27.691
LeftUpLeg  -15.3107 5.26911 -7.31522
LeftLeg  38.9648 1.60588 1.77098
LeftFoot  -15.2768 0.31545 6.4603
LeftToes  1.06249e-005 4.65856e-005 -8.18498e-006
99
root  -40.2902 38.6208 -5.98816 -23.5966 -82.2959 16.3352
RightUpLeg  -27.2384 -12.1136 -5.36796
RightLeg  16.7182 -3.29515 -1.0471
RightFoot  1.58411 -0.940857 8.39348
RightToes  0.00048216 0.542163 -0.142577
Spine  21.8648 -2.59773 2.01724
Spine1  4.22373 -1.71382 -2.44004
HEad  7.41542 -0.671832 -5.63563
LeftShoulder1  5.76684 -8.54888 -41.4788
LeftArm  -10.6601 -1.08062 -35.1747
LeftForeArm  48.3803 -65.8115 -20.1169
LeftHand  -0.25398 0.0180481 5.50724
RightShoulder  4.85955 8.38489 34.9154
RightArm  -3.74309 -26.7887 30.3654
RightForeArm  13.2642 67.3512 27.2604
RightHand  -2.82316 6.38545 -27.6994
LeftUpLeg  -9.9498 3.63111 -6.86426
LeftLeg  36.9665 1.01077 1.19778
LeftFoot  -16.8755 0.368598 5.49977
LeftToes  1.06249e-005 4.65856e-005 -8.18498e-006
100
root  -42.6056 38.8448 -6.19128 -22.4198 -79.814 14.7413
RightUpLeg  -22.8467 -13.6696 -6.11225
RightLeg  13.1473 -5.56361 -0.4568
RightFoot  2.52683 -0.955379 8.01817
RightToes  0.00048216 0.542163 -0.142577
Spine  17.9986 -1.62533 3.14831
Spine1  6.62479 -0.754412 -1.83208
HEad  10.4893 -4.20705 -6.62079
LeftShoulder1  5.83028 -8.47189 -42.2498
LeftArm  -11.0808 0.307055 -33.5317
LeftForeArm  45.8423 -62.9763 -17.5394
LeftHand  -0.25398 0.0180481 5.50724
RightShoulder  4.43504 7.60077 33.9899
RightArm  -4.9988 -29.9694 29.6571
RightForeArm  13.8411 67.9557 28.1881
RightHand  -2.93478 6.69154 -28.0542
LeftUpLeg  -5.59603 2.2236 -6.39489
LeftLeg  36.7578 0.222652 0.557897
LeftFoot  -18.0001 0.357406 4.35746
LeftToes  1.06249e-005 4.65856e-005 -8.18498e-006
101
root  -44.8603 38.862 -6.41416 -16.9812 -76.898 9.33243
RightUpLeg  -20.1146 -15.6894 -5.82826
RightLeg  14.3091 -9.01374 -0.804363
RightFoot  4.37925 -0.467474 3.66764
RightToes  0.00048216 0.542163 -0.142577
Spine  14.5695 -1.14263 4.89281
Spine1  7.54889 -0.31699 -1.0531
HEad  13.4487 -7.23377 -7.41611
LeftShoulder1  5.85166 -8.5142 -42.2557
LeftArm  -12.8329 5.45899 -31.2316
LeftForeArm  42.5087 -61.2378 -16.4711
LeftHand  -0.25398 0.0180481 5.50724
RightShoulder  4.09997 6.92772 33.3601
RightArm  -5.6353 -32.6795 29.0301
RightForeArm  15.1322 67.9672 28.0034
RightHand  -2.86483 6.48419 -27.8688
LeftUpLeg  -3.86805 1.72488 -4.1713
LeftLeg  40.0297 -2.53549 -1.95269
LeftFoot  -18.0942 0.191463 1.31993
LeftToes  1.06249e-005 4.65856e-005 -8.18498e-006
102
root  -46.9359 38.698 -6.58617 -8.32693 -74.5238 1.01247
RightUpLeg  -20.8699 -19.0066 -2.95617
RightLeg  20.0721 -7.84626 -2.25674
RightFoot  5.52436 0.338952 -2.1058
RightToes  0.00048216 0.542163 -0.142577
Spine  12.4199 -1.09416 8.61481
Spine1  6.93603 0.194894 -1.33977
HEad  14.9764 -9.81684 -8.1188
LeftShoulder1  5.74314 -8.37832 -41.9308
LeftArm  -15.4726 11.1731 -28.9075
LeftForeArm  37.0044 -58.024 -14.7523
LeftHand  -0.25398 0.0180481 5.50724
RightShoulder  3.98033 6.60136 33.4449
RightArm  -5.42141 -33.3968 27.5749
RightForeArm  13.006 66.4346 25.8673
RightHand  -2.74702 6.18401 -27.438
LeftUpLeg  -5.6007 1.25008 -0.0168427
LeftLeg  47.4148 -5.1802 -5.60486
LeftFoot  -14.4075 0.0254013 -2.86164
LeftToes  1.06249e-005 4.65856e-005 -8.18498e-006
103
root  -48.6997 38.4997 -6.70884 -1.34875 -72.9445 -6.31569
RightUpLeg  -21.929 -19.4313 -0.294271
RightLeg  27.1495 -6.7727 -4.14767
RightFoot  3.49748 0.676598 -4.97062
RightToes  0.00048216 0.542163 -0.142577
Spine  12.2214 -1.01219 13.1618
Spine1  6.8577 1.03295 -2.17803
HEad  14.1826 -12.3175 -8.74823
LeftShoulder1  6.09856 -8.69546 -43.4322
LeftArm  -19.2561 14.4718 -25.7998
LeftForeArm  32.8603 -52.2008 -11.8731
LeftHand  -0.25398 0.0180481 5.50724
RightShoulder  4.20696 6.81037 34.8127
RightArm  -5.36921 -30.4646 24.9098
RightForeArm  7.52022 62.4766 21.6956
RightHand  -2.52532 5.56611 -26.6594
LeftUpLeg  -9.51705 -0.322575 3.73909
LeftLeg  56.9889 -5.0564 -7.75838
LeftFoot  -7.5202 0.243129 -6.10997
LeftToes  1.06249e-005 4.65856e-005 -8.18498e-006
104
root  -50.1843 38.4319 -6.85064 -0.102768 -71.4653 -8.78905
RightUpLeg  -20.2799 -17.6221 -0.159582
RightLeg  32.1353 -8.81657 -6.16526
RightFoot  -0.986303 0.34054 -3.73422
RightToes  0.00048216 0.542163 -0.142577
Spine  13.2391 -1.0019 15.4387
Spine1  8.25575 1.63385 -2.2061
HEad  12.0533 -14.5808 -8.87578
LeftShoulder1  6.99317 -9.73732 -46.0392
LeftArm  -24.3768 15.6989 -22.8861
LeftForeArm  32.6 -44.0732 -8.62085
LeftHand  -0.25398 0.0180481 5.50724
RightShoulder  4.73328 7.59971 36.6269
RightArm  -6.51255 -24.6309 22.7836
RightForeArm  2.51625 55.2986 16.3002
RightHand  -2.04128 4.08432 -24.942
LeftUpLeg  -13.6802 -2.50318 5.19041
LeftLeg  65.6045 -3.24528 -7.06659
LeftFoot  -2.90249 0.55817 -7.42443
LeftToes  1.06249e-005 4.65856e-005 -8.18498e-006
105
root  -51.6 38.6497 -7.00206 -2.97421 -70.0826 -6.74838
RightUpLeg  -16.9971 -17.8366 -1.11876
RightLeg  33.39 -9.98007 -7.25952
RightFoot  -4.46049 0.0708989 -1.77163
RightToes  0.00048216 0.542163 -0.142577
Spine  13.9022 -0.857255 14.9982
Spine1  9.65709 1.80732 -1.53557
HEad  11.0415 -16.3352 -8.4563
LeftShoulder1  7.55567 -10.5594 -46.8712
LeftArm  -28.8482 16.7954 -22.2317
LeftForeArm  33.9905 -34.1186 -5.64636
LeftHand  -0.25398 0.0180481 5.50724
RightShoulder  5.20024 8.44723 37.4941
RightArm  -8.09047 -18.6328 22.7936
RightForeArm  -0.0113312 46.1551 11.6586
RightHand  -1.60592 2.76179 -22.896
LeftUpLeg  -17.5087 -3.61513 4.53223
LeftLeg  70.6267 -1.48967 -3.89403
LeftFoot  -2.92211 0.531541 -6.9412
LeftToes  1.06249e-005 4.65856e-005 -8.18498e-006
106
root  -53.0124 39.0862 -7.08961 -4.80972 -69.4532 -4.51131
RightUpLeg  -14.0801 -19.2753 -1.82924
RightLeg  31.9647 -9.31823 -6.47849
RightFoot  -5.58168 0.0512189 -1.78175
RightToes  0.00048216 0.542163 -0.142577
Spine  13.5177 -0.366401 14.3234
Spine1  9.83241 2.11759 -1.41452
HEad  12.0822 -17.4965 -8.18798
LeftShoulder1  7.39582 -10.5376 -45.9126
LeftArm  -28.8519 18.3197 -23.2795
LeftForeArm  31.265 -23.7366 -3.33216
LeftHand  -0.25398 0.0180481 5.50724
RightShoulder  5.32458 8.71238 37.559
RightArm  -8.81621 -14.3969 24.1088
RightForeArm  -2.03604 39.13 9.19815
RightHand  -1.52237 2.70619 -21.8723
LeftUpLeg  -21.3532 -2.6741 3.36579
LeftLeg  71.1206 -0.17173 0.269884
LeftFoot  -4.58554 0.333275 -5.1839
LeftToes  1.06249e-005 4.65856e-005 -8.18498e-006
107
root  -54.3569 39.5766 -7.09125 -4.44142 -70.0294 -3.97284
RightUpLeg  -11.5428 -20.592 -1.86813
RightLeg  29.3532 -7.48144 -4.7857
RightFoot  -5.90063 0.0731669 -2.37237
RightToes  0.00048216 0.542163 -0.142577
Spine  12.844 0.353953 14.674
Spine1  9.59617 2.84834 -2.01832
HEad  13.5228 -18.1591 -8.51268
LeftShoulder1  7.09553 -10.1012 -45.4491
LeftArm  -22.963 19.9681 -24.0665
LeftForeArm  22.6324 -15.5237 -2.05354
LeftHand  -0.25398 0.0180481 5.50724
RightShoulder  5.26712 8.49911 37.8445
RightArm  -8.58939 -11.9087 24.9716
RightForeArm  -4.21552 37.1889 8.75228
RightHand  -1.58619 3.15931 -21.6017
LeftUpLeg  -24.724 -0.189807 2.4557
LeftLeg  67.7655 1.03899 3.5395
LeftFoot  -5.03472 0.206385 -3.21922
LeftToes  1.06249e-005 4.65856e-005 -8.18498e-006
108
root  -55.6307 40.0498 -7.06049 -4.21402 -71.3922 -3.58714
RightUpLeg  -8.36653 -21.0096 -2.05081
RightLeg  25.9946 -5.89616 -3.35534
RightFoot  -6.30219 0.0381634 -1.83689
RightToes  0.00048216 0.542163 -0.142577
Spine  12.5457 1.08645 14.8034
Spine1  10.0425 3.60619 -2.52831
HEad  13.8857 -18.2568 -9.11046
LeftShoulder1  7.08371 -9.92524 -45.9794
LeftArm  -18.0549 22.5786 -24.4563
LeftForeArm  17.548 -11.8113 -2.64384
LeftHand  -0.25398 0.0180481 5.50724
RightShoulder  5.31924 8.42933 38.5079
RightArm  -8.16727 -10.3106 25.2407
RightForeArm  -4.2032 39.2161 9.40237
RightHand  -1.47683 2.83274 -20.9065
LeftUpLeg  -26.5521 2.97504 1.3493
LeftLeg  61.2208 2.11022 4.77236
LeftFoot  -5.08126 0.161133 -2.39849
LeftToes  1.06249e-005 4.65856e-005 -8.18498e-006
109
root  -56.8757 40.4421 -7.0126 -4.42659 -73.0717 -2.80429
RightUpLeg  -5.18614 -20.1414 -2.44711
RightLeg  22.5827 -5.25461 -2.18554
RightFoot  -6.34256 0.0113498 -1.24318
RightToes  0.00048216 0.542163 -0.142577
Spine  12.1699 1.63884 14.2434
Spine1  10.8009 4.07396 -2.79058
HEad  13.731 -17.6001 -9.63498
LeftShoulder1  7.14131 -9.99032 -46.1359
LeftArm  -16.4779 27.0354 -26.0191
LeftForeArm  19.417 -12.6695 -3.06447
LeftHand  -0.25398 0.0180481 5.50724
RightShoulder  5.46768 8.65081 38.9021
RightArm  -7.72712 -9.26883 26.1248
RightForeArm  -1.52916 42.4222 10.3338
RightHand  -1.20178 1.66787 -19.8116
LeftUpLeg  -26.7757 6.43654 -0.0316961
LeftLeg  51.6191 2.12603 3.41171
LeftFoot  -5.59687 0.191912 -3.15761
LeftToes  1.06249e-005 4.65856e-005 -8.18498e-006
110
root  -58.1181 40.6956 -6.90854 -3.30202 -75.1122 -3.03123
RightUpLeg  -2.9688 -17.392 -2.53862
RightLeg  20.0638 -5.9759 -0.852411
RightFoot  -6.31026 0.0281549 -1.6222
RightToes  0.00048216 0.542163 -0.142577
Spine  11.263 2.01535 14.0639
Spine1  11.1825 4.44086 -3.48168
HEad  13.8792 -16.2519 -10.1177
LeftShoulder1  7.05475 -9.95079 -45.6966
LeftArm  -16.6849 32.3782 -29.0132
LeftForeArm  23.4809 -15.5083 -2.99604
LeftHand  -0.25398 0.0180481 5.50724
RightShoulder  5.51277 8.74682 38.9164
RightArm  -6.78482 -8.79167 27.8781
RightForeArm  1.51628 45.694 11.3891
RightHand  -0.983662 0.589911 -19.092
LeftUpLeg  -26.1723 9.75901 -1.29256
LeftLeg  39.6979 0.12868 0.532133
LeftFoot  -4.43735 0.285625 -4.27856
LeftToes  1.06249e-005 4.65856e-005 -8.18498e-006
